<svg width="21" height="26" viewBox="0 0 21 26" fill="none" xmlns="http://www.w3.org/2000/svg">
<path d="M5.08067 9.60156C4.34582 9.60156 3.74805 10.1289 3.74805 10.7772V18.9204H4.62353V10.7772C4.62353 10.5548 4.82864 10.3738 5.08073 10.3738C5.33281 10.3738 5.53792 10.5548 5.53792 10.7772V22.6873C5.53792 22.9097 5.33281 23.0907 5.08073 23.0907C4.82864 23.0907 4.62353 22.9097 4.62353 22.6873V19.9502H3.74805V22.6873C3.74805 23.3356 4.34588 23.8629 5.08067 23.8629C5.81546 23.8629 6.41335 23.3356 6.41335 22.6873V10.7772C6.41335 10.1289 5.81551 9.60156 5.08067 9.60156Z" fill="white"/>
<path d="M10.1361 23.8629C10.8709 23.8629 11.4688 23.3356 11.4688 22.6873V10.7772C11.4688 10.1289 10.8709 9.60156 10.1361 9.60156C9.40124 9.60156 8.80347 10.1289 8.80347 10.7772V22.6873C8.80347 23.3356 9.40124 23.8629 10.1361 23.8629ZM9.67889 10.7772C9.67889 10.5548 9.884 10.3738 10.1361 10.3738C10.3882 10.3738 10.5933 10.5548 10.5933 10.7772V22.6873C10.5933 22.9097 10.3882 23.0907 10.1361 23.0907C9.884 23.0907 9.67889 22.9097 9.67889 22.6873V10.7772Z" fill="white"/>
<path d="M15.1918 23.8629C15.9266 23.8629 16.5244 23.3356 16.5244 22.6873V10.7772C16.5244 10.1289 15.9266 9.60156 15.1918 9.60156C14.4569 9.60156 13.8591 10.1289 13.8591 10.7772V22.6873C13.8591 23.3356 14.4569 23.8629 15.1918 23.8629ZM14.7346 10.7772C14.7346 10.5548 14.9397 10.3738 15.1918 10.3738C15.4438 10.3738 15.649 10.5548 15.649 10.7772V22.6873C15.649 22.9097 15.4438 23.0907 15.1918 23.0907C14.9397 23.0907 14.7346 22.9097 14.7346 22.6873V10.7772Z" fill="white"/>
<path d="M16.994 3.43241H13.9273V2.41846C13.9273 1.08489 12.6974 0 11.1856 0H9.08657C7.57486 0 6.34494 1.08489 6.34494 2.41846V3.43241H3.27822C1.47067 3.43241 0 4.72961 0 6.3242V8.23768H0.651718V24.7901C0.651718 25.4573 1.26699 26 2.02331 26H18.249C19.0053 26 19.6206 25.4573 19.6206 24.7901V8.23768H20.2723V6.32414C20.2722 4.72961 18.8016 3.43241 16.994 3.43241ZM7.22047 2.41846C7.22047 1.51079 8.05761 0.772281 9.08663 0.772281H11.1857C12.2147 0.772281 13.0519 1.51079 13.0519 2.41846V3.43241H12.1764V2.41846C12.1764 1.93659 11.732 1.54456 11.1857 1.54456H9.08663C8.54037 1.54456 8.09595 1.93659 8.09595 2.41846V3.43241H7.22047V2.41846V2.41846ZM11.3009 2.41846V3.43241H11.3009H8.97149V2.41846C8.97149 2.36245 9.02313 2.31684 9.08669 2.31684H11.1858C11.2492 2.31684 11.3009 2.36245 11.3009 2.41846ZM19.3967 7.4654H18.745H7.82096V8.23768H18.745V24.7901C18.745 25.0314 18.5225 25.2277 18.2489 25.2277H2.02331C1.74975 25.2277 1.5272 25.0314 1.5272 24.7901V8.23768H6.65367V7.4654H1.52726H0.875539V6.32414C0.875539 5.15546 1.95337 4.20469 3.27828 4.20469H6.34499H8.97144H11.3008H13.9273H16.994C18.3189 4.20469 19.3968 5.15552 19.3968 6.3242V7.4654H19.3967Z" fill="white"/>
<path d="M15.1918 5.92188H5.20435V6.69416H15.1918V5.92188Z" fill="white"/>
</svg>
